<?xml version="1.0" encoding="UTF-8" standalone="no"?>
<svg
   xmlns:dc="http://purl.org/dc/elements/1.1/"
   xmlns:cc="http://creativecommons.org/ns#"
   xmlns:rdf="http://www.w3.org/1999/02/22-rdf-syntax-ns#"
   xmlns:svg="http://www.w3.org/2000/svg"
   xmlns="http://www.w3.org/2000/svg"
   xmlns:sodipodi="http://sodipodi.sourceforge.net/DTD/sodipodi-0.dtd"
   xmlns:inkscape="http://www.inkscape.org/namespaces/inkscape"
   width="588.81104"
   height="1337.3163"
   version="1.1"
   id="svg37"
   sodipodi:docname="rocket-blastoff.svg"
   viewBox="0 0 588.81103 1337.3163"
   inkscape:version="0.92pre1_64bit r15016">
  <metadata
     id="metadata41">
    <rdf:RDF>
      <cc:Work
         rdf:about="">
        <dc:format>image/svg+xml</dc:format>
        <dc:type
           rdf:resource="http://purl.org/dc/dcmitype/StillImage" />
        <dc:title>rocket blastoff</dc:title>
      </cc:Work>
    </rdf:RDF>
  </metadata>
  <sodipodi:namedview
     pagecolor="#ffffff"
     bordercolor="#666666"
     borderopacity="1"
     objecttolerance="10"
     gridtolerance="10"
     guidetolerance="10"
     inkscape:pageopacity="0"
     inkscape:pageshadow="2"
     inkscape:window-width="1366"
     inkscape:window-height="745"
     id="namedview39"
     showgrid="false"
     fit-margin-top="10"
     fit-margin-left="10"
     fit-margin-right="10"
     fit-margin-bottom="10"
     inkscape:zoom="0.44267763"
     inkscape:cx="294.40552"
     inkscape:cy="668.65814"
     inkscape:window-x="-8"
     inkscape:window-y="-8"
     inkscape:window-maximized="1"
     inkscape:current-layer="svg37" />
  <title
     id="title2">rocket blastoff</title>
  <defs
     id="defs27">
    <symbol
       id="svg_18">
      <title
         id="title4">simple rocket</title>
      <metadata
         id="svg_17">image/svg+xml</metadata>
      <g
         id="svg_20">
        <title
           id="title7">Layer 1</title>
        <path
           transform="rotate(-44.7885,64.0245,51.7219)"
           stroke-miterlimit="4"
           id="svg_16"
           d="M 17.3309,77.019699 40.619301,99.569504 C 70.555496,74.477898 108.638,52.623402 110.718,3.87421 62.061199,7.5239 40.478599,45.6273 17.3309,77.019798 Z"
           inkscape:connector-curvature="0"
           style="fill:#e5e5e5;fill-rule:evenodd;stroke:#e5e5e5;stroke-width:6;stroke-linejoin:round;stroke-miterlimit:4" />
        <path
           d="M 70.8647,12.1274 A 6.5903749,6.6667015 0 1 1 58.597801,7.249169 7.0997461,7.181972 0 1 1 68.855499,17.181499 Z"
           id="svg_15"
           inkscape:connector-curvature="0"
           style="marker-start:none;marker-mid:none;marker-end:none" />
        <path
           d="M 70.8657,12.1265 A 6.5906773,6.6670074 0 1 1 58.597801,7.24917 7.0997461,7.181972 0 1 1 68.855499,17.1815 L 70.8657,12.126501 Z"
           id="svg_14"
           inkscape:connector-curvature="0"
           style="marker-start:none;marker-mid:none;marker-end:none" />
        <path
           d="M 70.8657,12.1265 A 6.5906773,6.6670074 0 1 1 58.597801,7.24917 7.0997461,7.181972 0 1 1 68.855499,17.1815 L 70.8657,12.126501 Z"
           id="svg_13"
           inkscape:connector-curvature="0"
           style="marker-start:none;marker-mid:none;marker-end:none" />
        <path
           d="M 70.8657,12.1265 A 6.5906773,6.6670074 0 1 1 58.597801,7.24917 7.0997461,7.181972 0 1 1 68.855499,17.1815 L 70.8657,12.126501 Z"
           id="svg_12"
           inkscape:connector-curvature="0"
           style="marker-start:none;marker-mid:none;marker-end:none" />
        <path
           d="M 70.8657,12.1265 A 6.5906773,6.6670074 0 1 1 58.597801,7.24917 7.0997461,7.181972 0 1 1 68.855499,17.1815 L 70.8657,12.126501 Z"
           id="svg_11"
           inkscape:connector-curvature="0"
           style="marker-start:none;marker-mid:none;marker-end:none" />
        <path
           d="M 70.8657,12.1265 A 6.5906773,6.6670074 0 1 1 58.597801,7.24917 7.0997461,7.181972 0 1 1 68.855499,17.1815 L 70.8657,12.126501 Z"
           id="svg_10"
           inkscape:connector-curvature="0"
           style="marker-start:none;marker-mid:none;marker-end:none" />
        <path
           transform="rotate(-44.7885,63.7266,12.2154)"
           stroke-miterlimit="4"
           d="M 68.855476,17.181549 A 7.0997657,7.1819918 0 1 1 58.59777,7.24917 7.0997657,7.1819918 0 1 1 68.855476,17.181549 Z"
           id="svg_9"
           inkscape:connector-curvature="0"
           style="fill:#ffffff;fill-rule:evenodd;stroke:#e5e5e5;stroke-width:3.61041188;stroke-linejoin:round;stroke-miterlimit:4;stroke-dashoffset:0;marker-start:none;marker-mid:none;marker-end:none" />
        <path
           d="m 71.117599,32.497398 a 6.5907575,6.6670885 0 1 1 -12.2682,-4.876999 7.0997715,7.1819976 0 1 1 10.257702,9.9324 z"
           id="svg_8"
           inkscape:connector-curvature="0"
           style="marker-start:none;marker-mid:none;marker-end:none" />
        <path
           d="M 71.116096,32.498501 A 6.5902574,6.6665826 0 1 1 58.849399,27.6204 7.0997715,7.1819976 0 1 1 69.107101,37.5528 Z"
           id="svg_7"
           inkscape:connector-curvature="0"
           style="marker-start:none;marker-mid:none;marker-end:none" />
        <path
           transform="rotate(-44.7885,63.9783,32.5866)"
           stroke-miterlimit="4"
           id="svg_6"
           d="M 69.107117,37.552799 A 7.0997697,7.1819958 0 1 1 58.8494,27.62042 7.0997697,7.1819958 0 1 1 69.107117,37.552799 Z"
           inkscape:connector-curvature="0"
           style="fill:#ffffff;fill-rule:evenodd;stroke:#e5e5e5;stroke-width:3.61041188;stroke-linejoin:round;stroke-miterlimit:4;stroke-dashoffset:0;marker-start:none;marker-mid:none;marker-end:none" />
        <path
           d="M 71.373802,53.146 A 6.5904506,6.6667781 0 1 1 59.1063,48.268902 a 7.09977,7.1819962 0 1 1 10.257698,9.9324 z"
           id="svg_5"
           inkscape:connector-curvature="0"
           style="marker-start:none;marker-mid:none;marker-end:none" />
        <path
           d="m 71.372704,53.146301 a 6.5899936,6.6663158 0 1 1 -12.266403,-4.877399 7.09977,7.1819962 0 1 1 10.257698,9.9324 l 2.008705,-5.055 z"
           id="svg_4"
           inkscape:connector-curvature="0"
           style="marker-start:none;marker-mid:none;marker-end:none" />
        <path
           transform="rotate(-44.7885,64.2351,53.2351)"
           stroke-miterlimit="4"
           d="M 69.363983,58.20129 A 7.0997689,7.1819951 0 1 1 59.10627,48.268909 7.0997689,7.1819951 0 1 1 69.363983,58.20129 Z"
           id="svg_3"
           inkscape:connector-curvature="0"
           style="fill:#ffffff;fill-rule:evenodd;stroke:#e5e5e5;stroke-width:3.61041188;stroke-linejoin:round;stroke-miterlimit:4;stroke-dashoffset:0;marker-start:none;marker-mid:none;marker-end:none" />
        <path
           transform="rotate(-44.7885,41.2411,93.4039)"
           stroke-miterlimit="4"
           id="svg_2"
           d="m 40.76371,104.84049 -19.77302,6.85797 C 25.2672,99.019256 32.034519,82.628639 41.166809,77.028968 c 6.00024,-3.679199 20.32476,-0.938141 20.32476,-0.938141 z"
           inkscape:connector-curvature="0"
           style="fill:#e5e5e5;fill-rule:evenodd;stroke:#e5e5e5;stroke-width:6;stroke-linejoin:round;stroke-miterlimit:4" />
        <path
           transform="rotate(-44.7885,89.0064,91.3894)"
           stroke-miterlimit="4"
           d="m 77.410316,92.219254 -6.217339,19.983706 c 12.534836,-4.6828 28.698914,-11.97467 34.001463,-21.282656 3.48393,-6.115662 0.28281,-20.344421 0.28281,-20.344421 L 77.410315,92.219255 Z"
           id="svg_1"
           inkscape:connector-curvature="0"
           style="fill:#e5e5e5;fill-rule:evenodd;stroke:#e5e5e5;stroke-width:6;stroke-linejoin:round;stroke-miterlimit:4" />
      </g>
    </symbol>
  </defs>
  <path
     style="fill:#e5e5e5;fill-rule:evenodd;stroke-width:9.28103447"
     d="m 284.81641,10.791016 c -5.12278,0.04403 -10.14989,2.495799 -14.52735,7.353515 -5.933,6.583921 -20.90431,27.109347 -33.41992,45.816407 -47.97215,71.703892 -81.15916,146.464222 -102.98633,231.998042 -23.40772,91.72748 -31.567,193.9181 -24.94922,312.50196 1.33932,23.9992 4.61009,66.83105 6.07032,79.5 l 0.57617,5 -8.72461,7.41406 c -21.0317,17.87644 -46.241383,44.02995 -59.832032,62.07227 -26.9453,35.77135 -34.551603,61.46271 -33.382813,112.74609 0.57026,25.02152 2.100076,38.64948 7.384766,65.76758 10.68061,54.80707 33.907468,124.86286 65.798828,198.45896 8.90507,20.5504 12.313784,24.9448 21.052731,27.1426 v 0 c 8.69202,2.186 18.30724,-2.8378 22.93555,-11.9824 1.286,-2.5408 15.0354,-33.6442 30.55273,-69.1192 15.51733,-35.475 28.53954,-64.8495 28.93946,-65.2773 0.12969,-0.1387 8.99857,-0.397 21.51953,-0.6973 -4.04693,11.3853 -6.92192,25.4244 -8.31055,42.6289 0,0 -17.2416,54.3288 -27.875,102.5957 -10.63454,48.2722 3.33195,84.5707 6.85547,86.9297 3.52362,2.3591 21.57679,-16.9896 29,-29.9843 7.42588,-12.9953 -0.62387,-54.312 15.35352,13.2734 15.97518,67.5818 34.85025,104.1721 41.20312,88.9648 26.55169,-30.1289 23.59431,-132.4077 47.00195,-98.7754 23.39991,33.6333 57.74529,98.5476 54.73047,30.6563 -3.01802,-67.8872 -23.52193,-111.5602 4.84766,-91.0684 28.3766,20.4926 46.17548,54.8678 52.1543,15.4571 5.65257,-37.251 -26.69273,-121.4243 -43.69922,-163.5645 6.13454,-0.057 12.0452,-0.1078 15.79101,-0.1094 l 12,-0.01 28.5,61.6211 c 24.62779,53.2484 29.1114,62.2689 33,66.3945 7.30373,7.7488 16.10512,8.8192 25.17188,3.0625 5.54012,-3.5175 7.54569,-7.2894 18.14648,-34.1309 31.27262,-79.1833 50.60318,-144.62699 59.06641,-199.97066 3.55397,-23.24054 4.60733,-36.64638 4.61133,-58.66016 0.007,-38.47519 -5.46878,-62.54875 -19.64844,-86.39062 -15.48412,-26.03521 -45.7938,-58.46528 -80.61719,-86.25586 -6.17649,-4.92911 -11.39518,-9.10485 -11.5957,-9.27735 -0.20051,-0.17251 0.47449,-14.17408 1.5,-31.11523 1.46718,-24.23725 1.86242,-43.90826 1.85742,-92.30078 -0.006,-61.01159 -0.45011,-73.19332 -4.06641,-111.50196 C 453.64276,298.55101 414.04849,182.04507 344.12109,76.960938 331.21613,57.56787 306.38636,24.38781 299.91602,17.890625 c -4.75945,-4.779187 -9.97684,-7.143638 -15.09961,-7.099609 z m 1.57617,204.179684 c 8.73894,-0.0101 10.05643,0.25666 16.16992,3.26368 22.4379,11.03642 30.77529,41.84743 17.4668,64.55664 -3.70323,6.31909 -12.7199,14.1787 -18.90625,16.48046 -19.42204,7.22635 -38.9388,-1.44332 -48.54688,-21.56445 -3.6552,-7.65456 -3.69922,-7.89692 -3.69922,-20.24805 0,-11.98963 0.13045,-12.77522 3.20117,-19.25781 4.02445,-8.49593 11.56555,-16.54295 19.03321,-20.31055 5.15416,-2.60039 6.77524,-2.90992 15.28125,-2.91992 z m 2.08203,165.63086 c 3.38944,0.0462 6.91804,0.59116 10.54883,1.70703 30.381,9.33722 39.52837,52.67225 15.8457,75.07032 -3.01774,2.85406 -7.91997,6.30315 -10.89258,7.66406 -14.194,6.49822 -30.98526,2.56851 -42.16601,-9.86719 -25.89674,-28.8034 -6.10056,-75.02059 26.66406,-74.57422 z m 1.24087,170.04108 c 24.75396,1.69885 36.98466,16.76872 39.93296,35.81634 2.97436,19.21603 -6.90828,39.29288 -23.03516,46.79297 -7.50458,3.49012 -19.26218,4.11868 -26.81445,1.43555 -11.11977,-3.95059 -20.70859,-13.82105 -25.05274,-25.78906 -10.6562,-29.35752 10.21543,-59.95465 34.96939,-58.2558 z m 63.20249,466.31636 c 15.81758,28.341 49.80938,110.3345 37.36523,98.2363 -9.0616,-1.645 -54.18144,-21.525 -51.74218,18.4668 1.76435,54.2936 -12.46958,30.0114 -25.53321,2.0879 -13.06299,-27.9277 -14.81363,-15.824 -24.25781,32.4375 -9.44664,48.2621 -16.1739,-0.501 -31.39062,-46.0918 -15.20385,-45.5887 -11.79223,-10.8441 -29.42383,9.8047 -17.64025,20.6477 -21.6343,20.9238 -21.2461,-2.4219 0.31198,-18.9754 25.79643,-85.9488 35.43555,-110.6484 33.65649,-0.6716 76.8446,-1.4055 110.79297,-1.8711 z"
     id="path671"
     inkscape:connector-curvature="0"
     sodipodi:nodetypes="ssssscccsssscccscccsccccccccccccccsscsscscsscsccsccscscccccsccsccsccccccccccc" />
</svg>
